<svg xmlns="http://www.w3.org/2000/svg" width="264.988" height="261.684" viewBox="0 0 264.988 261.684">
  <g id="Group_132" data-name="Group 132" transform="translate(688.016 10647.316)">
    <path id="Path_307" data-name="Path 307" d="M37.726-53.852H51.994v-16.56h7.811V-82.7H51.994v-45.1H37.726L6.48-82.7v12.29H37.726ZM20.645-82.7l17.081-25.934V-82.7Z" transform="translate(-513.1 -10470.766)" fill="#292929"/>
    <g id="Group_131" data-name="Group 131" transform="translate(-688.016 -10518.644) rotate(-47)">
      <circle id="Ellipse_25" data-name="Ellipse 25" cx="9.199" cy="9.199" r="9.199" transform="translate(162.742 175.012)" fill="#ddd9d2"/>
      <path id="Path_226" data-name="Path 226" d="M153.349,195.032c-41.772,0-83.637-37.94-87.224-70.515q-.231-2.1-.271-4.273A92.211,92.211,0,0,1,11.3,85.068C-5.89,61.582-3.458,32.962,18.529,0L34.1,10.39c-17.409,26.1-19.927,46.909-7.7,63.619a73.235,73.235,0,0,0,42,27.622c9-32.865,40.161-69.209,69.15-75.529,14.957-3.26,27.312,1.161,33.9,12.131,7.714,12.85,5.261,31.658-5.833,44.722-22.353,25.556-50.624,39.409-80.084,39.41-.273,0-.547,0-.82,0,0,.035.007.071.011.106,2.969,26.959,43.38,56.524,73.29,53.618l1.811,18.635Q156.6,195.035,153.349,195.032ZM146.854,43.758a25.111,25.111,0,0,0-5.3.636C120.319,49.023,95.3,78.251,87.214,103.622c23.393-.537,46.034-12.085,64.232-32.89,6.366-7.5,7.041-17.736,3.963-22.862C153.766,45.133,150.9,43.758,146.854,43.758Z" transform="translate(0 0)" fill="#fa4e38"/>
    </g>
    <path id="Path_308" data-name="Path 308" d="M37.726-53.852H51.994v-16.56h7.811V-82.7H51.994v-45.1H37.726L6.48-82.7v12.29H37.726ZM20.645-82.7l17.081-25.934V-82.7Z" transform="translate(-653.705 -10470.766)" fill="#292929"/>
  </g>
</svg>
