<svg xmlns="http://www.w3.org/2000/svg" width="57.173" height="71.709" viewBox="0 0 57.173 71.709">
  <g id="Group_84" data-name="Group 84" transform="translate(22654.012 9149.709)">
    <path id="Path_29" data-name="Path 29" d="M797.312-945.3H781.756a14.106,14.106,0,0,1-14.09-14.09v-28.621a10.29,10.29,0,0,1,2.948-7.235l18.21-18.645a10.273,10.273,0,0,1,7.4-3.118,10.272,10.272,0,0,1,7.4,3.117l18.212,18.647a10.3,10.3,0,0,1,2.946,7.233v23.505H816v-23.505a1.553,1.553,0,0,0-.444-1.091l-18.211-18.646a1.551,1.551,0,0,0-1.115-.469,1.552,1.552,0,0,0-1.116.47L776.9-989.1a1.548,1.548,0,0,0-.444,1.09v28.621a5.3,5.3,0,0,0,5.3,5.3h15.556Z" transform="translate(-23421.678 -8132.697)" fill="#fa4e38"/>
    <circle id="Ellipse_8" data-name="Ellipse 8" cx="4.397" cy="4.397" r="4.397" transform="translate(-22605.633 -9093.805)" fill="#cccbc8"/>
  </g>
</svg>
