<svg xmlns="http://www.w3.org/2000/svg" width="67.531" height="55.245" viewBox="0 0 67.531 55.245">
  <g id="Group_87" data-name="Group 87" transform="translate(22346.133 9219)">
    <circle id="Ellipse_50" data-name="Ellipse 50" cx="3.493" cy="3.493" r="3.493" transform="translate(-22285.588 -9175.324)" fill="#cccbc8"/>
    <path id="Union_1" data-name="Union 1" d="M8.336,55.245C3.739,55.245,0,51.915,0,47.823V20.3c0-4.092,3.739-7.421,8.336-7.421H14.71V10.008A10,10,0,0,1,24.718,0H42.635A10,10,0,0,1,52.642,10.008v2.869h6.466c4.6,0,8.336,3.329,8.336,7.421V41.368H60.46V20.3a2.08,2.08,0,0,0-1.352-.437H8.336a1.689,1.689,0,0,0-1.367.524l.016,27.44a2.081,2.081,0,0,0,1.352.437H50.15v6.984Zm37.85-42.369V10.008a3.545,3.545,0,0,0-3.551-3.551H24.718a3.546,3.546,0,0,0-3.551,3.551v2.869Z" transform="translate(-22346.133 -9219)" fill="#fa4e38"/>
  </g>
</svg>
