<svg xmlns="http://www.w3.org/2000/svg" width="46.999" height="35.163" viewBox="0 0 46.999 35.163">
  <g id="Group_76" data-name="Group 76" transform="translate(-756.999 -7097.712)">
    <circle id="Ellipse_46" data-name="Ellipse 46" cx="2.327" cy="2.327" r="2.327" transform="translate(799.344 7125.168)" fill="#7c7c7c"/>
    <path id="Path_274" data-name="Path 274" d="M1240.087,172.369H1210.84a5.721,5.721,0,0,1-5.714-5.714V142.92a5.721,5.721,0,0,1,5.714-5.714h.833l17.011,13.973,16.831-13.973h.84a5.721,5.721,0,0,1,5.714,5.714V162.9h-4.652V142.92a1.061,1.061,0,0,0-.453-.87L1228.7,157.212l-18.463-15.166a1.062,1.062,0,0,0-.458.873v23.735a1.063,1.063,0,0,0,1.062,1.062h29.247Z" transform="translate(-448.127 6960.506)" fill="#fa4e38"/>
  </g>
</svg>
