<svg xmlns="http://www.w3.org/2000/svg" width="1286.518" height="429.146" viewBox="0 0 1286.518 429.146">
  <g id="Group_71" data-name="Group 71" transform="translate(15812.693 11028.313)">
    <circle id="Ellipse_28" data-name="Ellipse 28" cx="39.705" cy="39.705" r="39.705" transform="translate(-14605.585 -11028.313)" fill="#fa4e38"/>
    <path id="Path_229" data-name="Path 229" d="M1523.185-1655.8c-108.09,0-216.14-36.688-287.924-104.422-95.835-90.438-234.767-132.182-337.86-101.514-75.019,22.317-123.995,79.1-145.565,168.762l-78.569-18.9c27.987-116.337,99.4-197.066,201.093-227.317,131.427-39.1,298.75,9.206,416.362,120.2,88.726,83.72,248.072,107.66,370.65,55.685,90.158-38.224,135.088-129.733,178.539-218.229,5.419-11.037,10.793-21.98,16.2-32.727l72.181,36.335c-5.291,10.51-10.545,21.213-15.845,32.008-47.647,97.044-101.652,207.035-219.533,257.012C1640.155-1666.535,1581.663-1655.8,1523.185-1655.8Z" transform="translate(-16485.961 -8943.372)" fill="#f5f4f1"/>
  </g>
</svg>
