<svg xmlns="http://www.w3.org/2000/svg" width="489.742" height="777.39" viewBox="0 0 489.742 777.39">
  <g id="Group_74" data-name="Group 74" transform="translate(-829.374 -6229.695)">
    <circle id="Ellipse_27" data-name="Ellipse 27" cx="37.53" cy="37.53" r="37.53" transform="translate(1066.566 6229.695)" fill="#fa4e38"/>
    <path id="Path_228" data-name="Path 228" d="M435.6-1509.57c-27.3,0-55.217-11.48-78.548-33.659-55.1-52.39-27.034-124.865,16.359-203.74-34.091-30.323-72.368-51.851-109.972-60.22-46.926-10.44-84.407-6.3-100.26,11.077-12.142,13.309-8.353,30.632-6.161,37.463,6.481,20.192,23.839,35.122,46.43,39.938l-15.925,74.705c-48.95-10.435-88.507-45.418-103.234-91.3-13.035-40.607-4.638-82.584,22.46-112.288,20.593-22.574,70.489-57.028,173.281-34.157,45.818,10.2,91.236,33.86,131.948,67.208,91.27-160.6,132.666-274.956-30.651-371.391l38.838-65.773c246.175,145.361,128.525,353.565,47.915,492.9a439.56,439.56,0,0,1,60.835,95.579l1.175,2.518.8,2.662c16.137,53.8-1.96,107.735-45.031,134.2A95.345,95.345,0,0,1,435.6-1509.57Zm-7.993-176.543c-20.114,39.67-32.1,74.045-17.924,87.525,7.61,7.235,22.433,18.113,36.183,9.663,10.2-6.27,18.214-22.8,12.543-44.736A359.95,359.95,0,0,0,427.61-1686.114Z" transform="translate(751.105 8516.655)" fill="#f5f4f1"/>
  </g>
</svg>
