<svg xmlns="http://www.w3.org/2000/svg" width="114" height="114" viewBox="0 0 114 114">
  <g id="Group_67" data-name="Group 67" transform="translate(-0.199)">
    <g id="Ellipse_36" data-name="Ellipse 36" transform="translate(0.199)" fill="none" stroke="#fff" stroke-width="8">
      <circle cx="57" cy="57" r="57" stroke="none"/>
      <circle cx="57" cy="57" r="53" fill="none"/>
    </g>
    <g id="Polygon_2" data-name="Polygon 2" transform="translate(88.92 28.6) rotate(90)" fill="none">
      <path d="M23.421,8.851a6,6,0,0,1,10.357,0l18.138,31a6,6,0,0,1-5.179,9.03H10.462a6,6,0,0,1-5.179-9.03Z" stroke="none"/>
      <path d="M 28.60000419616699 15.8411750793457 L 13.94962692260742 40.87999725341797 L 43.25037384033203 40.87999725341797 L 28.60000419616699 15.8411750793457 M 28.60000610351562 5.880893707275391 C 30.6101016998291 5.880893707275391 32.62019348144531 6.870864868164062 33.77867889404297 8.850811004638672 L 51.91644668579102 39.84991836547852 C 54.25681686401367 43.84982681274414 51.37204742431641 48.87999725341797 46.73777008056641 48.87999725341797 L 10.46223068237305 48.87999725341797 C 5.827953338623047 48.87999725341797 2.943183898925781 43.84982681274414 5.283554077148438 39.84991836547852 L 23.42132186889648 8.850826263427734 C 24.57980728149414 6.870872497558594 26.58991050720215 5.880893707275391 28.60000610351562 5.880893707275391 Z" stroke="none" fill="#fff"/>
    </g>
  </g>
</svg>
