<svg xmlns="http://www.w3.org/2000/svg" width="54.093" height="57.949" viewBox="0 0 54.093 57.949">
  <g id="Group_65" data-name="Group 65" transform="translate(19258.514 8886.155)">
    <circle id="Ellipse_35" data-name="Ellipse 35" cx="3.638" cy="3.638" r="3.638" transform="translate(-19211.695 -8865.768)" fill="#cccbc8"/>
    <g id="Group_64" data-name="Group 64" transform="translate(-19258.514 -8886.155)">
      <g id="Group_27" data-name="Group 27" transform="translate(0 0)">
        <g id="Group_26" data-name="Group 26">
          <path id="Path_30" data-name="Path 30" d="M329.558-954.985a5.182,5.182,0,0,1-3.673-1.528l-.154-.164-9.279-10.52h-15a9.975,9.975,0,0,1-9.964-9.964v-25.81a9.975,9.975,0,0,1,9.964-9.964h34.144a9.975,9.975,0,0,1,9.964,9.964v7.68h-7.273v-7.68a2.694,2.694,0,0,0-2.69-2.69H301.449a2.694,2.694,0,0,0-2.69,2.69v25.81a2.694,2.694,0,0,0,2.69,2.69h18.286l7.754,8.792v-8.792H339.2v7.273h-4.44v7.01a5.183,5.183,0,0,1-3.212,4.8A5.21,5.21,0,0,1,329.558-954.985Z" transform="translate(-291.486 1012.934)" fill="#fa4e38"/>
        </g>
      </g>
    </g>
  </g>
</svg>
