<svg xmlns="http://www.w3.org/2000/svg" width="65" height="48.631" viewBox="0 0 65 48.631">
  <g id="Group_63" data-name="Group 63" transform="translate(20988.875 7987.435)">
    <circle id="Ellipse_34" data-name="Ellipse 34" cx="3.218" cy="3.218" r="3.218" transform="translate(-20930.311 -7949.462)" fill="#cccbc8"/>
    <path id="Path_274" data-name="Path 274" d="M1253.478-955.443h-40.449a7.912,7.912,0,0,1-7.9-7.9v-32.825a7.912,7.912,0,0,1,7.9-7.9h49.116a7.912,7.912,0,0,1,7.9,7.9v27.629h-6.434v-27.629a1.47,1.47,0,0,0-1.469-1.468h-49.116a1.47,1.47,0,0,0-1.469,1.468v32.825a1.47,1.47,0,0,0,1.469,1.469h40.449Z" transform="translate(-22194 -6983.36)" fill="#fa4e38"/>
    <path id="Line_7" data-name="Line 7" d="M46.292-15.2H0v-6.434H46.292Z" transform="translate(-20979.561 -7953.462)" fill="#fa4e38"/>
    <path id="Line_8" data-name="Line 8" d="M46.292-15.2H0v-6.434H46.292Z" transform="translate(-20979.561 -7944.382)" fill="#fa4e38"/>
  </g>
</svg>
