<svg xmlns="http://www.w3.org/2000/svg" width="182.845" height="200.894" viewBox="0 0 182.845 200.894">
  <g id="Group_69" data-name="Group 69" transform="translate(0.001 0)" opacity="0.098">
    <circle id="Ellipse_30" data-name="Ellipse 30" cx="7.821" cy="7.821" r="7.821" transform="translate(154.503 -0.001)" fill="#292929"/>
    <path id="Path_231" data-name="Path 231" d="M2879.568-2144.024c-23.913-19.2-51.017-40.958-66.669-70.889-3-5.747-6.328-13.412-5.37-21.753,1.078-9.382,8.686-18.969,19.547-18.773,6.686.123,11.809,3.993,15.55,6.819a245.956,245.956,0,0,0,56.08,31.772c8.3,3.353,18.433,5.217,21.995.393,2.291-3.1,1.035-8.511-1.309-12.023-2.978-4.459-7.794-7.991-12.892-11.73l-1.873-1.378c-18.754-13.882-35.381-30.337-51.461-46.25-4.851-4.8-10.35-10.241-13.53-17.7-4.105-9.636-2.689-20.138,3.606-26.759,7.04-7.4,18.049-8.845,32.722-4.288a203.947,203.947,0,0,1,47.393,21.706c1.722,1.075,3.44,2.18,5.162,3.288,8.39,5.4,16.314,10.5,24.937,12.05,8.3,1.49,18.853-2.279,20.559-9.554.949-4.046-.667-9.231-4.431-14.225l12.711-9.581c6.715,8.908,9.278,18.653,7.218,27.44-3.425,14.608-18.258,22.163-32.284,22.164a37.322,37.322,0,0,1-6.586-.576c-11.752-2.111-21.4-8.324-30.739-14.333-1.658-1.067-3.312-2.132-4.97-3.167a188.013,188.013,0,0,0-43.691-20.01c-4.731-1.469-13.163-3.417-16.465.056-1.827,1.921-2.036,5.937-.5,9.548,1.954,4.583,6.087,8.672,10.084,12.627,15.681,15.519,31.9,31.567,49.734,44.77l1.817,1.337c5.708,4.186,12.177,8.931,16.716,15.727,5.5,8.237,7.9,20.8.877,30.315-7.727,10.467-22.585,12.257-40.764,4.911a261.875,261.875,0,0,1-59.709-33.829c-2.111-1.594-4.736-3.577-6.246-3.605-1.264-.022-3.165,2.24-3.444,4.675-.461,4.013,1.593,8.6,3.662,12.561,14.108,26.978,39.832,47.63,62.528,65.851Z" transform="translate(-2807.362 2344.917)" fill="#292929"/>
  </g>
</svg>
