<svg xmlns="http://www.w3.org/2000/svg" width="70.946" height="76.387" viewBox="0 0 70.946 76.387">
  <g id="Group_62" data-name="Group 62" transform="translate(14492.975 10035.717)">
    <circle id="Ellipse_25" data-name="Ellipse 25" cx="3.603" cy="3.603" r="3.603" transform="translate(-14429.234 -9967.171)" fill="#fa4e38"/>
    <path id="Path_226" data-name="Path 226" d="M2053.048-1012.086c-16.361,0-32.758-14.86-34.163-27.619q-.09-.822-.106-1.673a36.116,36.116,0,0,1-21.366-13.777c-6.733-9.2-5.781-20.408,2.831-33.318l6.1,4.069c-6.819,10.222-7.8,18.373-3.014,24.917a28.684,28.684,0,0,0,16.452,10.819c3.527-12.872,15.729-27.107,27.084-29.582,5.858-1.277,10.7.455,13.277,4.751,3.021,5.033,2.061,12.4-2.285,17.516-8.755,10.009-19.828,15.435-31.366,15.436h-.321l0,.041c1.163,10.559,16.99,22.138,28.705,21l.709,7.3Q2054.321-1012.085,2053.048-1012.086Zm-2.544-59.249a9.834,9.834,0,0,0-2.077.249c-8.316,1.813-18.113,13.26-21.282,23.2,9.162-.21,18.03-4.733,25.157-12.882,2.493-2.937,2.758-6.947,1.552-8.954A3.594,3.594,0,0,0,2050.5-1071.335Z" transform="translate(-16485.961 -8947.243)" fill="#cccbc8"/>
  </g>
</svg>
