<svg xmlns="http://www.w3.org/2000/svg" width="68.166" height="74.894" viewBox="0 0 68.166 74.894">
  <g id="Group_66" data-name="Group 66" transform="translate(13678.6 10128.373)">
    <circle id="Ellipse_26" data-name="Ellipse 26" cx="2.916" cy="2.916" r="2.916" transform="translate(-13621 -10128.373)" fill="#ddd9d2"/>
    <path id="Path_227" data-name="Path 227" d="M2834.281-1080.846c-8.915-7.157-19.02-15.269-24.854-26.428-1.12-2.142-2.359-5-2-8.11.4-3.5,3.238-7.072,7.287-7,2.493.046,4.4,1.488,5.8,2.542A91.689,91.689,0,0,0,2841.416-1108c3.093,1.25,6.872,1.945,8.2.147.854-1.157.386-3.173-.488-4.482a19.357,19.357,0,0,0-4.806-4.373l-.7-.514c-6.992-5.175-13.19-11.31-19.185-17.242a21.145,21.145,0,0,1-5.044-6.6,9.193,9.193,0,0,1,1.344-9.976c2.625-2.76,6.729-3.3,12.2-1.6a76.015,76.015,0,0,1,17.668,8.092c.642.4,1.283.813,1.925,1.226,3.127,2.013,6.082,3.915,9.3,4.492,3.094.556,7.029-.849,7.665-3.562.354-1.508-.249-3.441-1.652-5.3l4.738-3.572c2.5,3.321,3.459,6.954,2.691,10.23-1.277,5.446-6.807,8.262-12.036,8.263a13.914,13.914,0,0,1-2.455-.215c-4.381-.787-7.98-3.1-11.46-5.344-.618-.4-1.234-.795-1.853-1.181a70.085,70.085,0,0,0-16.288-7.46c-1.764-.548-4.907-1.274-6.138.021a3.5,3.5,0,0,0-.186,3.56,16.438,16.438,0,0,0,3.759,4.707c5.846,5.786,11.891,11.768,18.541,16.691l.678.5a24.4,24.4,0,0,1,6.232,5.863c2.049,3.071,2.944,7.756.327,11.3-2.881,3.9-8.419,4.569-15.2,1.831a97.622,97.622,0,0,1-22.26-12.612,6.082,6.082,0,0,0-2.329-1.344c-.471-.009-1.18.835-1.284,1.743-.172,1.5.593,3.207,1.365,4.683,5.259,10.058,14.85,17.757,23.311,24.55Z" transform="translate(-16485.961 -8972.633)" fill="#fa4e38"/>
  </g>
</svg>
