<svg xmlns="http://www.w3.org/2000/svg" width="110.139" height="27.888" viewBox="0 0 110.139 27.888">
  <g id="Group_80" data-name="Group 80" transform="translate(21014.139 3382)">
    <g id="Group_56" data-name="Group 56" transform="translate(-21014.139 -3382)">
      <path id="Path_264" data-name="Path 264" d="M304.67,35.29a1.919,1.919,0,0,1,1.955-1.93,1.943,1.943,0,0,1,0,3.885A1.924,1.924,0,0,1,304.67,35.29Zm.178,4.546a.36.36,0,0,1,.381-.381H308a.36.36,0,0,1,.381.381v11.68A.36.36,0,0,1,308,51.9h-2.768a.36.36,0,0,1-.381-.381Z" transform="translate(-288.428 -33.336)" fill="#f5f4f1"/>
      <path id="Path_265" data-name="Path 265" d="M418.66,143.446v-11.68a.36.36,0,0,1,.381-.381h2.641c.229,0,.381.1.381.406l.076,1.32a3.874,3.874,0,0,1,3.5-2.031,3.7,3.7,0,0,1,3.529,2.209,4.1,4.1,0,0,1,3.834-2.209c2.666,0,4.291,1.828,4.291,5.078v7.288a.36.36,0,0,1-.381.381h-2.743a.36.36,0,0,1-.381-.381V136.92c0-1.7-.61-2.615-1.981-2.615-1.32,0-2.082.914-2.082,2.615v6.526a.36.36,0,0,1-.381.381h-2.717a.368.368,0,0,1-.406-.381V136.92c0-1.7-.635-2.615-1.981-2.615-1.32,0-2.082.914-2.082,2.615v6.526a.36.36,0,0,1-.381.381h-2.743A.359.359,0,0,1,418.66,143.446Z" transform="translate(-395.664 -125.266)" fill="#f5f4f1"/>
      <path id="Path_266" data-name="Path 266" d="M783.76,148.27v-16.5a.36.36,0,0,1,.381-.381h2.514a.36.36,0,0,1,.381.381l.05,1.371a4.515,4.515,0,0,1,4.063-2.057c3.479,0,5.891,2.844,5.891,6.526,0,3.707-2.413,6.526-5.891,6.526a4.655,4.655,0,0,1-3.859-1.777v5.917a.36.36,0,0,1-.381.381h-2.767A.36.36,0,0,1,783.76,148.27Zm6.653-7.339a3.329,3.329,0,0,0,0-6.652,3.33,3.33,0,0,0,0,6.652Z" transform="translate(-739.132 -125.266)" fill="#f5f4f1"/>
      <path id="Path_267" data-name="Path 267" d="M1048.17,57.565V40.171a.36.36,0,0,1,.381-.381h2.767a.36.36,0,0,1,.381.381V57.565a.36.36,0,0,1-.381.381h-2.767A.36.36,0,0,1,1048.17,57.565Z" transform="translate(-987.877 -39.385)" fill="#f5f4f1"/>
      <path id="Path_268" data-name="Path 268" d="M1148.01,137.555a6.207,6.207,0,0,1,6.4-6.475,5.737,5.737,0,0,1,5.968,5.941c0,1.219-.279,1.9-1.371,1.9h-7.567c.381,1.574,1.675,2.438,3.682,2.438a5.5,5.5,0,0,0,2.895-.762.284.284,0,0,1,.431.1l.94,1.3c.127.178.1.355-.127.559a6.159,6.159,0,0,1-4.418,1.574A6.444,6.444,0,0,1,1148.01,137.555Zm9.243-1.092a2.642,2.642,0,0,0-2.818-2.488,2.885,2.885,0,0,0-3.047,2.488Z" transform="translate(-1081.801 -125.266)" fill="#f5f4f1"/>
      <g id="Group_55" data-name="Group 55" transform="translate(79.92)">
        <path id="Path_269" data-name="Path 269" d="M1823.9,246.58a1.918,1.918,0,0,1,1.955-1.93,1.943,1.943,0,0,1,0,3.885A1.924,1.924,0,0,1,1823.9,246.58Z" transform="translate(-1797.565 -232.107)" fill="#f5f4f1"/>
        <path id="Path_270" data-name="Path 270" d="M1381.273,51.129V41.786H1379.8a.36.36,0,0,1-.381-.381V39.45a.36.36,0,0,1,.381-.381h1.472v-1.93c0-2.894,1.6-4.189,4.265-4.189a3.831,3.831,0,0,1,1.9.381.42.42,0,0,1,.229.381v2.31c0,.178-.152.2-.33.178a5.821,5.821,0,0,0-1.016-.127c-1.244,0-1.523.635-1.523,1.549v1.447h2.488a.36.36,0,0,1,.381.381V41.4a.36.36,0,0,1-.381.381H1384.8v9.343a.36.36,0,0,1-.381.381h-2.768A.36.36,0,0,1,1381.273,51.129Z" transform="translate(-1379.42 -32.95)" fill="#f5f4f1"/>
        <path id="Path_271" data-name="Path 271" d="M1564.363,143.832l-2.25.809V136.16a.38.38,0,0,0-.38-.38H1559a.38.38,0,0,0-.38.38v3.62a2.489,2.489,0,0,1-1.159,2.44,2.657,2.657,0,0,1-1.16.245c-1.494,0-2.3-.937-2.3-2.684v-3.62a.38.38,0,0,0-.38-.38h-2.734a.38.38,0,0,0-.38.38v4.405c0,3.241,1.874,5.115,4.482,5.115h3.656v.193l-6.3,2.233-.02.007a2.673,2.673,0,0,0-.765,4.752c.032.025.065.052.1.079.391.329,3.8,2.772,5.329,3.868a3.153,3.153,0,0,0,2.06.762,3.208,3.208,0,0,0,1.273-.264,2.906,2.906,0,0,0,1.779-2.7v-6.3l3.425-1.226a.386.386,0,0,0,.235-.494l-.9-2.525A.389.389,0,0,0,1564.363,143.832Zm-5.724,10.425c-1.469-1.053-3.919-2.82-4.846-3.5l4.846-1.446Z" transform="translate(-1540.297 -129.687)" fill="#f5f4f1"/>
      </g>
      <path id="Path_272" data-name="Path 272" d="M39.436,136.25H35.774a.267.267,0,0,0-.246.164l-4.969,11.9a.267.267,0,0,0,.246.37h3.075a.267.267,0,0,0,.248-.167L37.57,140c1.1,1.706,3.218,2.267,3.218,3.778,0,1.072-.9,1.755-2.194,1.755a3.569,3.569,0,0,1-1.563-.352.266.266,0,0,0-.361.141l-.969,2.383a.269.269,0,0,0,.11.331,6.647,6.647,0,0,0,3.465.935,4.812,4.812,0,0,0,5.168-5.119c0-4.426-4.205-4.415-4.745-7.384A.266.266,0,0,0,39.436,136.25Z" transform="translate(-30.537 -130.13)" fill="#f5f4f1"/>
    </g>
  </g>
</svg>
