<svg xmlns="http://www.w3.org/2000/svg" width="717.779" height="795.677" viewBox="0 0 717.779 795.677">
  <path id="Path_226" data-name="Path 226" d="M2618.609-292.8c-170.418,0-341.218-154.785-355.852-287.684q-.943-8.567-1.106-17.432c-88.768-19.4-169.115-70.505-222.558-143.508-70.136-95.814-60.216-212.579,29.485-347.053l63.544,42.387c-71.026,106.479-81.3,191.378-31.394,259.548,41.294,56.408,102.924,96.359,171.365,112.691,36.735-134.082,163.845-282.356,282.113-308.138,61.021-13.3,111.426,4.738,138.295,49.493,31.473,52.424,21.464,129.158-23.8,182.455-91.193,104.261-206.534,160.78-326.72,160.783-1.113,0-2.23,0-3.344-.015.015.141.031.289.047.43,12.111,109.985,176.979,230.6,299,218.746l7.387,76.026Q2631.866-292.784,2618.609-292.8Zm-26.5-617.155a102.438,102.438,0,0,0-21.639,2.6c-86.62,18.883-188.676,138.125-221.68,241.631,95.436-2.193,187.8-49.3,262.05-134.182,25.973-30.59,28.724-72.358,16.168-93.272C2620.309-904.342,2608.608-909.951,2592.113-909.951Z" transform="translate(-1992.986 1088.473)" fill="#fa4e38"/>
</svg>
