<svg id="Group_56" data-name="Group 56" xmlns="http://www.w3.org/2000/svg" width="210.767" height="53.368" viewBox="0 0 210.767 53.368">
  <path id="Path_264" data-name="Path 264" d="M304.67,37.053a3.671,3.671,0,0,1,3.742-3.693,3.717,3.717,0,0,1,0,7.434A3.682,3.682,0,0,1,304.67,37.053Zm.34,8.7a.689.689,0,0,1,.729-.729h5.3a.689.689,0,0,1,.729.729V68.1a.689.689,0,0,1-.729.729h-5.3a.689.689,0,0,1-.729-.729Z" transform="translate(-273.589 -33.314)" fill="#fa4e38"/>
  <path id="Path_265" data-name="Path 265" d="M418.66,154.744V132.392a.689.689,0,0,1,.729-.729h5.053c.438,0,.729.194.729.778l.146,2.526a7.414,7.414,0,0,1,6.706-3.887,7.076,7.076,0,0,1,6.754,4.227,7.838,7.838,0,0,1,7.337-4.227c5.1,0,8.212,3.5,8.212,9.718v13.946a.689.689,0,0,1-.729.729H448.35a.689.689,0,0,1-.729-.729V142.256c0-3.255-1.167-5-3.79-5-2.526,0-3.984,1.749-3.984,5v12.488a.689.689,0,0,1-.729.729h-5.2a.7.7,0,0,1-.778-.729V142.256c0-3.255-1.214-5-3.79-5-2.526,0-3.984,1.749-3.984,5v12.488a.689.689,0,0,1-.729.729h-5.248A.688.688,0,0,1,418.66,154.744Z" transform="translate(-374.654 -119.954)" fill="#fa4e38"/>
  <path id="Path_266" data-name="Path 266" d="M783.76,163.976V132.392a.689.689,0,0,1,.729-.729H789.3a.689.689,0,0,1,.729.729l.1,2.624a8.641,8.641,0,0,1,7.775-3.935c6.658,0,11.273,5.442,11.273,12.488,0,7.094-4.617,12.488-11.273,12.488a8.907,8.907,0,0,1-7.386-3.4v11.322a.689.689,0,0,1-.729.729h-5.3A.688.688,0,0,1,783.76,163.976Zm12.732-14.043a6.37,6.37,0,0,0,0-12.73c-3.6,0-6.074,2.526-6.074,6.365S792.9,149.933,796.492,149.933Z" transform="translate(-698.359 -119.954)" fill="#fa4e38"/>
  <path id="Path_267" data-name="Path 267" d="M1048.17,73.8V40.519a.688.688,0,0,1,.729-.729h5.3a.689.689,0,0,1,.729.729V73.8a.689.689,0,0,1-.729.729h-5.3A.688.688,0,0,1,1048.17,73.8Z" transform="translate(-932.79 -39.014)" fill="#fa4e38"/>
  <path id="Path_268" data-name="Path 268" d="M1148.01,143.47c0-7,4.907-12.39,12.244-12.39,7.241,0,11.42,5.345,11.42,11.37,0,2.332-.534,3.645-2.624,3.645h-14.48c.729,3.013,3.206,4.664,7.045,4.664a10.526,10.526,0,0,0,5.54-1.458.544.544,0,0,1,.825.194l1.8,2.479c.243.34.195.68-.243,1.069a11.786,11.786,0,0,1-8.455,3.013C1153.258,156.056,1148.01,150.662,1148.01,143.47Zm17.688-2.09a5.055,5.055,0,0,0-5.394-4.762,5.521,5.521,0,0,0-5.831,4.762Z" transform="translate(-1021.31 -119.954)" fill="#fa4e38"/>
  <g id="Group_55" data-name="Group 55" transform="translate(152.938)">
    <path id="Path_269" data-name="Path 269" d="M1823.9,248.343a3.671,3.671,0,0,1,3.74-3.693,3.717,3.717,0,0,1,0,7.434A3.682,3.682,0,0,1,1823.9,248.343Z" transform="translate(-1773.504 -220.647)" fill="#fa4e38"/>
    <path id="Path_270" data-name="Path 270" d="M1382.967,67.738V49.859h-2.818a.689.689,0,0,1-.729-.729V45.388a.688.688,0,0,1,.729-.729h2.818V40.966c0-5.539,3.06-8.016,8.162-8.016a7.331,7.331,0,0,1,3.644.729.8.8,0,0,1,.438.729v4.421c0,.34-.291.389-.632.34a11.143,11.143,0,0,0-1.943-.243c-2.381,0-2.915,1.214-2.915,2.964v2.769h4.761a.689.689,0,0,1,.729.729v3.742a.689.689,0,0,1-.729.729h-4.761V67.738a.689.689,0,0,1-.729.729h-5.3A.688.688,0,0,1,1382.967,67.738Z" transform="translate(-1379.42 -32.95)" fill="#fa4e38"/>
    <path id="Path_271" data-name="Path 271" d="M1577.093,151.188l-4.305,1.549v-16.23a.727.727,0,0,0-.727-.727h-5.232a.727.727,0,0,0-.727.727v6.928c0,2.353-.769,3.935-2.219,4.669a5.083,5.083,0,0,1-2.22.468c-2.859,0-4.41-1.793-4.41-5.136v-6.928a.727.727,0,0,0-.727-.727h-5.233a.727.727,0,0,0-.727.727v8.43c0,6.2,3.585,9.788,8.577,9.788h7v.37l-12.056,4.273-.039.014a5.115,5.115,0,0,0-1.464,9.094c.061.049.124.1.186.152.748.629,7.266,5.305,10.2,7.4a6.033,6.033,0,0,0,3.942,1.458,6.135,6.135,0,0,0,2.437-.506,5.562,5.562,0,0,0,3.4-5.169V159.762l6.553-2.346a.739.739,0,0,0,.45-.944l-1.713-4.832A.745.745,0,0,0,1577.093,151.188Zm-10.954,19.951c-2.812-2.015-7.5-5.4-9.273-6.688l9.273-2.768Z" transform="translate(-1531.04 -124.121)" fill="#fa4e38"/>
  </g>
  <path id="Path_272" data-name="Path 272" d="M47.567,136.25H40.558a.51.51,0,0,0-.472.314l-9.509,22.768a.511.511,0,0,0,.472.709h5.884a.512.512,0,0,0,.474-.32L44,143.434c2.1,3.265,6.158,4.338,6.158,7.23,0,2.052-1.726,3.358-4.2,3.358a6.83,6.83,0,0,1-2.991-.673.509.509,0,0,0-.692.27l-1.854,4.56a.514.514,0,0,0,.211.633A12.72,12.72,0,0,0,47.26,160.6c6.2,0,9.889-4.011,9.889-9.8,0-8.471-8.048-8.449-9.081-14.13A.509.509,0,0,0,47.567,136.25Z" transform="translate(-30.537 -124.538)" fill="#fa4e38"/>
</svg>
