<svg xmlns="http://www.w3.org/2000/svg" width="117.606" height="59.309" viewBox="0 0 117.606 59.309">
  <g id="Group_85" data-name="Group 85" transform="translate(23008.041 8658.529)">
    <g id="Group_29" data-name="Group 29" transform="translate(-23008.041 -8658.529)">
      <path id="Path_32" data-name="Path 32" d="M505.992-466.524a14.136,14.136,0,0,1-12.354-7.274l-42.555.005a7.235,7.235,0,0,1-7.187-6.4l-.026-.226v-.227a6.228,6.228,0,0,0-1.89-4.489,6.233,6.233,0,0,0-4.537-1.784,6.285,6.285,0,0,0-6.122,6.408,6.236,6.236,0,0,0,.26,1.665l-7.514,2.262a14.084,14.084,0,0,1-.592-3.763,14.145,14.145,0,0,1,13.783-14.417,14.019,14.019,0,0,1,10.2,4.016,14,14,0,0,1,4.22,9.109l44.1-.005a4.522,4.522,0,0,1,4.271,3.044,6.281,6.281,0,0,0,5.936,4.231,6.29,6.29,0,0,0,5.918-4.177,4.529,4.529,0,0,1,4.224-3.008l7.092-.074a27.942,27.942,0,0,0,.131-4.849c-.194-5.029-.711-7.338-1.91-8.523-2.333-2.306-5.01-3.342-16.258-4.932-2.473-.423-4.353-2.258-6.955-4.8-4.035-3.938-10.133-9.89-19.664-11.925a72.094,72.094,0,0,0-13.887-1.326c-7.054-.087-16.612.747-19.756,2.246a35.688,35.688,0,0,0-9.32,6.734c-2.455,2.261-4.994,4.6-8.568,6.129-4.415,1.891-5.557,3.325-5.557,6.972h-7.847c0-8.606,5.214-12,10.314-14.185,2.338-1,4.105-2.628,6.342-4.688a42.786,42.786,0,0,1,11.258-8.045c6.661-3.177,22.556-3.018,23.229-3.009a79.808,79.808,0,0,1,15.429,1.5c11.749,2.509,19.109,9.692,23.506,13.983a32.236,32.236,0,0,0,2.965,2.7c11.476,1.63,16.078,2.906,20.284,7.063,3.219,3.182,3.99,7.469,4.234,13.8a33.44,33.44,0,0,1-.276,6.721c-.787,4.623-3.991,6.269-6.726,6.269l-5.888.061A14.157,14.157,0,0,1,505.992-466.524Z" transform="translate(-413.636 525.832)" fill="#fa4e38"/>
      <path id="Path_33" data-name="Path 33" d="M484.97-254.377A14.145,14.145,0,0,1,471.5-264.4l7.4-2.213a6.377,6.377,0,0,0,6.074,4.516Z" transform="translate(-461.007 313.622)" fill="#fa4e38"/>
    </g>
    <circle id="Ellipse_11" data-name="Ellipse 11" cx="3.924" cy="3.924" r="3.924" transform="translate(-23007.984 -8625.791)" fill="#cccbc8"/>
  </g>
</svg>
