<svg xmlns="http://www.w3.org/2000/svg" width="28.488" height="43.412" viewBox="0 0 28.488 43.412">
  <g id="Group_79" data-name="Group 79" transform="translate(17719.346 6670.154)">
    <circle id="Ellipse_47" data-name="Ellipse 47" cx="2.308" cy="2.308" r="2.308" transform="translate(-17695.473 -6634.386)" fill="#7c7c7c"/>
    <path id="Path_274" data-name="Path 274" d="M1391.674,100.618h-10.88a5.675,5.675,0,0,1-5.668-5.668V62.874a5.675,5.675,0,0,1,5.668-5.668h17.1a5.675,5.675,0,0,1,5.668,5.668V91.223h-4.615V62.874a1.055,1.055,0,0,0-1.053-1.053h-17.1a1.055,1.055,0,0,0-1.053,1.053V94.95A1.055,1.055,0,0,0,1380.794,96h10.88Z" transform="translate(-19094.471 -6727.36)" fill="#fa4e38"/>
    <path id="Path_274-2" data-name="Path 274" d="M4.533,3.2A1.333,1.333,0,1,0,5.866,4.533,1.335,1.335,0,0,0,4.533,3.2m0-3.2A4.533,4.533,0,1,1,0,4.533,4.533,4.533,0,0,1,4.533,0Z" transform="translate(-17709.283 -6644.647)" fill="#fa4e38"/>
  </g>
</svg>
