<svg xmlns="http://www.w3.org/2000/svg" width="73.458" height="71.709" viewBox="0 0 73.458 71.709">
  <g id="Group_86" data-name="Group 86" transform="translate(22224.268 8673.491)">
    <path id="Path_34" data-name="Path 34" d="M1253.942-469.085a6.133,6.133,0,0,1-.957-.075c-3.2-.5-6.062-5.118-6.085-5.164l-5.873-12.74a3.962,3.962,0,0,0-2.783-1.989,4.019,4.019,0,0,0-3.44.954l-2.085,1.856-5.78-6.493,2.085-1.856a12.652,12.652,0,0,1,10.83-3,12.653,12.653,0,0,1,8.994,6.74l5.507,11.943,1.859-1.571a.6.6,0,0,0,.091-.49l-6.436-23.8a12.769,12.769,0,0,1,3.292-12.334l5.551-5.551a11.411,11.411,0,0,0,3.348-7.712c0-.14.021-.362.046-.642q.058-.638.066-1.09c-.368.007-.859.039-1.517.111-.355.039-.623.061-.774.066a11.409,11.409,0,0,0-7.707,3.348l-5.553,5.553a12.772,12.772,0,0,1-12.331,3.29l-23.8-6.435a.6.6,0,0,0-.562.149l-1.35,1.466,11.481,5.841a12.654,12.654,0,0,1,6.741,8.994,12.652,12.652,0,0,1-3,10.83l-1.494,1.677a11.7,11.7,0,0,1-9.725,3.857l-4.1-.363,3.454,3.281-5.987,6.3-5.554-5.276a6.083,6.083,0,0,1-2.834-3.939,6.1,6.1,0,0,1,1.65-5.643l.97-.97a8.968,8.968,0,0,1,6.7-2.615h.257l.2.032,6.012.532a2.966,2.966,0,0,0,2.467-.978l1.5-1.678a4.018,4.018,0,0,0,.952-3.439,4.02,4.02,0,0,0-2.141-2.857l-14.46-7.357a6.172,6.172,0,0,1-3.291-4.528,6.163,6.163,0,0,1,1.728-5.318l3.565-3.871a9.356,9.356,0,0,1,9.1-2.52l23.8,6.434a4.058,4.058,0,0,0,3.917-1.045l5.553-5.553a20.075,20.075,0,0,1,13.568-5.889l.106-.018c1.892-.209,6.919-.765,9.53,2.728,1.988,2.662,1.669,6.176,1.533,7.676l-.018.209a20.034,20.034,0,0,1-5.886,13.506l-5.553,5.553a4.055,4.055,0,0,0-1.045,3.918l6.434,23.8a9.291,9.291,0,0,1-2.394,8.977l-.129.129-4.038,3.411A6.177,6.177,0,0,1,1253.942-469.085Z" transform="translate(-23421.678 -8132.697)" fill="#fa4e38"/>
    <circle id="Ellipse_12" data-name="Ellipse 12" cx="4.348" cy="4.348" r="4.348" transform="translate(-22202.266 -8621.995)" fill="#cccbc8"/>
  </g>
</svg>
