<svg xmlns="http://www.w3.org/2000/svg" width="487.557" height="611.523" viewBox="0 0 487.557 611.523">
  <g id="Group_50" data-name="Group 50" transform="translate(19204.334 9889.635)">
    <path id="Path_220" data-name="Path 220" d="M1020.484-405.489H887.824A120.294,120.294,0,0,1,767.666-525.647V-769.725a87.748,87.748,0,0,1,25.139-61.7l155.29-159a87.6,87.6,0,0,1,63.146-26.59,87.6,87.6,0,0,1,63.141,26.585l155.313,159.022a87.816,87.816,0,0,1,25.12,61.68v200.447h-74.974V-769.725a13.242,13.242,0,0,0-3.788-9.3l-155.3-159.011a13.225,13.225,0,0,0-9.509-4,13.23,13.23,0,0,0-9.514,4.007L846.423-779.02a13.2,13.2,0,0,0-3.783,9.294v244.078a45.235,45.235,0,0,0,45.184,45.184h132.661Z" transform="translate(-19972 -8872.623)" fill="#fa4e38"/>
    <circle id="Ellipse_18" data-name="Ellipse 18" cx="37.497" cy="37.497" r="37.497" transform="translate(-18791.771 -9412.895)" fill="#cccbc8"/>
  </g>
</svg>
