<svg xmlns="http://www.w3.org/2000/svg" width="269.378" height="98.031" viewBox="0 0 269.378 98.031">
  <g id="LOGO_SIMPLEFY_COR_PRINCIPAL_ASSINATURA_EN" data-name="LOGO SIMPLEFY_COR PRINCIPAL_ASSINATURA EN" transform="translate(-30.537 -32.95)">
    <g id="Group_95" data-name="Group 95" transform="translate(31.029 94.643)">
      <g id="Group_94" data-name="Group 94" transform="translate(0 0)">
        <g id="Group_93" data-name="Group 93">
          <g id="Group_92" data-name="Group 92">
            <path id="Path_277" data-name="Path 277" d="M39.367,487.62a1.416,1.416,0,0,0-1.32-1c-.532,0-1,.314-1,.768,0,.414.275.709.846.906l1.24.454a5.87,5.87,0,0,1,1.99,1,2.338,2.338,0,0,1,.926,2.029,2.828,2.828,0,0,1-1.162,2.384,4.717,4.717,0,0,1-2.9.848,3.813,3.813,0,0,1-4.058-2.876l2.226-.69a1.826,1.826,0,0,0,1.832,1.32c.729,0,1.3-.454,1.3-.945,0-.374-.3-.669-.867-.887l-1.182-.414c-1.95-.709-2.934-1.753-2.934-3.152a2.574,2.574,0,0,1,1.064-2.166,4.029,4.029,0,0,1,2.561-.827,3.825,3.825,0,0,1,3.8,2.639Z" transform="translate(-33.93 -480.647)" fill="#fa4e38"/>
            <path id="Path_278" data-name="Path 278" d="M124.181,485.571a4.988,4.988,0,0,1,1.162,3.605v5.634h-2.817v-5.575c0-1.478-.748-2.4-2.088-2.4A2.614,2.614,0,0,0,118.015,489v5.811H115.2v-5.575a2.158,2.158,0,0,0-2.108-2.4,2.41,2.41,0,0,0-2.4,2.166v5.811H107.87V484.568h2.817v2.008a2.352,2.352,0,0,1,.906-1.419,3.09,3.09,0,0,1,2.206-.788,4.177,4.177,0,0,1,3.7,2.324,4.027,4.027,0,0,1,1.281-1.536,4.211,4.211,0,0,1,5.4.413Z" transform="translate(-97.155 -480.647)" fill="#fa4e38"/>
            <path id="Path_279" data-name="Path 279" d="M248.419,494.446a5.207,5.207,0,0,1-2.719-4.768,5.343,5.343,0,0,1,.788-2.955,4.921,4.921,0,0,1,4.255-2.364,3.438,3.438,0,0,1,2.975,1.5h.138v-1.3h2.817V494.8h-2.817v-1.3h-.138a3.438,3.438,0,0,1-2.975,1.5A5.077,5.077,0,0,1,248.419,494.446Zm2.739-1.949a2.762,2.762,0,0,0,1.93-.748,3,3,0,0,0,0-4.136,2.861,2.861,0,0,0-3.86,0,3.106,3.106,0,0,0,0,4.136A2.762,2.762,0,0,0,251.157,492.5Z" transform="translate(-215.012 -480.639)" fill="#fa4e38"/>
            <path id="Path_280" data-name="Path 280" d="M349.461,484.708v2.7a2.888,2.888,0,0,0-.669-.059,3.5,3.5,0,0,0-2.462.946,3.54,3.54,0,0,0-1.162,2.384v4.373H342.35V484.808h2.817v2.561a3.562,3.562,0,0,1,3.546-2.719A3.412,3.412,0,0,1,349.461,484.708Z" transform="translate(-297.657 -480.886)" fill="#fa4e38"/>
            <path id="Path_281" data-name="Path 281" d="M414.46,477.923v2.285a4.218,4.218,0,0,1-2.029.413c-1.91,0-2.994-.729-2.994-2.876v-5.16H408V470.26h1.438v-2.62h2.817v2.62h2.187v2.324h-2.187v4.57c0,.61.2.965.985.965A4.574,4.574,0,0,0,414.46,477.923Z" transform="translate(-353.793 -466.342)" fill="#fa4e38"/>
            <path id="Path_282" data-name="Path 282" d="M510.175,462.6h6.6v10.242h-2.817v-7.918h-3.782v7.918h-2.817v-7.918H506V462.6h1.359v-.433a3.109,3.109,0,0,1,1.3-2.9,4.177,4.177,0,0,1,2.246-.591,6.7,6.7,0,0,1,1.616.177v2.3A3.291,3.291,0,0,0,511.5,461c-.887,0-1.32.374-1.32,1.142v.455Zm3.782-3.684h2.817V461.6h-2.817Z" transform="translate(-437.592 -458.68)" fill="#fa4e38"/>
            <path id="Path_283" data-name="Path 283" d="M610.056,485.532a4.66,4.66,0,0,1,1.123,3.388v5.889h-2.817v-5.692c0-1.575-.846-2.285-2.029-2.285a2.022,2.022,0,0,0-1.6.709,2.152,2.152,0,0,0-.651,1.281v5.988H601.27V484.567h2.817v1.93a3.647,3.647,0,0,1,3.289-2.127A3.609,3.609,0,0,1,610.056,485.532Z" transform="translate(-519.056 -480.647)" fill="#fa4e38"/>
            <path id="Path_284" data-name="Path 284" d="M689.629,494.446a5.207,5.207,0,0,1-2.719-4.768,5.343,5.343,0,0,1,.788-2.955,4.921,4.921,0,0,1,4.255-2.364,3.438,3.438,0,0,1,2.975,1.5h.138v-1.3h2.817V494.8h-2.817v-1.3h-.138a3.438,3.438,0,0,1-2.975,1.5A5.068,5.068,0,0,1,689.629,494.446Zm2.737-1.949a2.765,2.765,0,0,0,1.93-.748,3,3,0,0,0,0-4.136,2.861,2.861,0,0,0-3.86,0,3.106,3.106,0,0,0,0,4.136A2.765,2.765,0,0,0,692.366,492.5Z" transform="translate(-592.286 -480.639)" fill="#fa4e38"/>
            <path id="Path_285" data-name="Path 285" d="M792.336,485.532a4.66,4.66,0,0,1,1.123,3.388v5.889h-2.817v-5.692c0-1.575-.846-2.285-2.029-2.285a2.022,2.022,0,0,0-1.6.709,2.152,2.152,0,0,0-.651,1.281v5.988H783.55V484.567h2.817v1.93a3.647,3.647,0,0,1,3.289-2.127A3.614,3.614,0,0,1,792.336,485.532Z" transform="translate(-674.922 -480.647)" fill="#fa4e38"/>
            <path id="Path_286" data-name="Path 286" d="M878.94,486.815l-2.166,1a2.73,2.73,0,0,0-2.206-.965,2.613,2.613,0,0,0-1.852.768,2.807,2.807,0,0,0,1.852,4.865,2.734,2.734,0,0,0,2.206-.926l2.187,1a4.812,4.812,0,0,1-4.431,2.423A6.048,6.048,0,0,1,871,493.707a5.056,5.056,0,0,1-1.813-4.018,5.342,5.342,0,0,1,5.339-5.339A4.785,4.785,0,0,1,878.94,486.815Z" transform="translate(-748.152 -480.63)" fill="#fa4e38"/>
            <path id="Path_287" data-name="Path 287" d="M957.357,460.31v2.679H954.54V460.31Zm0,3.684v10.242H954.54V463.994Z" transform="translate(-821.134 -460.074)" fill="#fa4e38"/>
            <path id="Path_288" data-name="Path 288" d="M994.229,494.446a5.207,5.207,0,0,1-2.719-4.768,5.343,5.343,0,0,1,.788-2.955,4.921,4.921,0,0,1,4.255-2.364,3.438,3.438,0,0,1,2.975,1.5h.138v-1.3h2.817V494.8h-2.817v-1.3h-.138a3.438,3.438,0,0,1-2.975,1.5A5.076,5.076,0,0,1,994.229,494.446Zm2.739-1.949a2.762,2.762,0,0,0,1.93-.748,3,3,0,0,0,0-4.136,2.861,2.861,0,0,0-3.86,0,3.107,3.107,0,0,0,0,4.136A2.762,2.762,0,0,0,996.967,492.5Z" transform="translate(-852.746 -480.639)" fill="#fa4e38"/>
            <path id="Path_289" data-name="Path 289" d="M1090.967,460.31v13.926h-2.817V460.31Z" transform="translate(-935.382 -460.074)" fill="#fa4e38"/>
            <path id="Path_290" data-name="Path 290" d="M36.919,621.656a5.207,5.207,0,0,1-2.719-4.768,5.343,5.343,0,0,1,.788-2.955,4.922,4.922,0,0,1,4.255-2.364,3.438,3.438,0,0,1,2.975,1.5h.138v-1.3h2.817v10.242H42.356v-1.3h-.138a3.438,3.438,0,0,1-2.975,1.5A5.109,5.109,0,0,1,36.919,621.656Zm2.737-1.951a2.757,2.757,0,0,0,1.93-.749,3,3,0,0,0,0-4.136,2.865,2.865,0,0,0-3.86,0,3.106,3.106,0,0,0,0,4.136A2.76,2.76,0,0,0,39.656,619.705Z" transform="translate(-34.161 -589.415)" fill="#fa4e38"/>
            <path id="Path_291" data-name="Path 291" d="M132.466,587.51h2.817v13.926h-2.817v-1.3h-.138a3.438,3.438,0,0,1-2.975,1.5,5.1,5.1,0,0,1-2.324-.552,5.207,5.207,0,0,1-2.719-4.768,5.343,5.343,0,0,1,.788-2.955A4.922,4.922,0,0,1,129.353,591a3.438,3.438,0,0,1,2.975,1.5h.138Zm-2.7,11.622a2.76,2.76,0,0,0,1.93-.749,3,3,0,0,0,0-4.136,2.865,2.865,0,0,0-3.86,0,3.106,3.106,0,0,0,0,4.136A2.757,2.757,0,0,0,129.767,599.132Z" transform="translate(-111.213 -568.841)" fill="#fa4e38"/>
            <path id="Path_292" data-name="Path 292" d="M227.433,612.93l-4.452,10.242h-2.6L215.93,612.93h2.876l2.876,6.895,2.856-6.895Z" transform="translate(-189.556 -590.578)" fill="#fa4e38"/>
            <path id="Path_293" data-name="Path 293" d="M314.027,587.51v2.679H311.21V587.51Zm0,3.684v10.242H311.21V591.194Z" transform="translate(-271.029 -568.841)" fill="#fa4e38"/>
            <path id="Path_294" data-name="Path 294" d="M351.987,614.812a1.416,1.416,0,0,0-1.32-1c-.532,0-1,.314-1,.768,0,.413.275.709.846.906l1.24.454a5.867,5.867,0,0,1,1.99,1,2.338,2.338,0,0,1,.926,2.029,2.828,2.828,0,0,1-1.162,2.384,4.716,4.716,0,0,1-2.9.846,3.813,3.813,0,0,1-4.057-2.877l2.226-.69a1.826,1.826,0,0,0,1.832,1.32c.729,0,1.3-.454,1.3-.945,0-.374-.3-.67-.867-.887l-1.182-.414c-1.95-.709-2.934-1.753-2.934-3.152a2.574,2.574,0,0,1,1.064-2.166,4.029,4.029,0,0,1,2.561-.827,3.824,3.824,0,0,1,3.8,2.64Z" transform="translate(-301.248 -589.406)" fill="#fa4e38"/>
            <path id="Path_295" data-name="Path 295" d="M415.974,621.714a5.292,5.292,0,0,1-2.088-1.793,5.061,5.061,0,0,1-.867-2.934,5.156,5.156,0,0,1,3.565-5,5.412,5.412,0,0,1,5.4.965c1.635,1.142,2.384,4.275,1.3,6.363a5.446,5.446,0,0,1-4.865,2.955A5.752,5.752,0,0,1,415.974,621.714Zm.571-6.817a2.718,2.718,0,0,0-.788,2.088,2.641,2.641,0,0,0,.788,2.029,2.687,2.687,0,0,0,3.723,0,2.656,2.656,0,0,0,.807-2.029,2.729,2.729,0,0,0-.807-2.088,2.64,2.64,0,0,0-3.723,0Z" transform="translate(-358.085 -589.472)" fill="#fa4e38"/>
            <path id="Path_296" data-name="Path 296" d="M510.661,611.9v2.7a2.889,2.889,0,0,0-.669-.059,3.5,3.5,0,0,0-2.462.945,3.541,3.541,0,0,0-1.162,2.384v4.373H503.55V612h2.817v2.561a3.773,3.773,0,0,1,4.294-2.659Z" transform="translate(-435.497 -589.646)" fill="#fa4e38"/>
            <path id="Path_297" data-name="Path 297" d="M574.129,612.93h2.9l-4.452,10.242-1.753,3.743H568l1.852-4.018-4.334-9.967H568.4l2.877,6.895Z" transform="translate(-488.487 -590.578)" fill="#fa4e38"/>
          </g>
        </g>
      </g>
    </g>
    <g id="Group_97" data-name="Group 97" transform="translate(30.537 32.95)">
      <path id="Path_298" data-name="Path 298" d="M304.67,38.08a4.692,4.692,0,0,1,4.782-4.72,4.751,4.751,0,0,1,0,9.5A4.706,4.706,0,0,1,304.67,38.08ZM305.1,49.2a.88.88,0,0,1,.932-.932h6.769a.88.88,0,0,1,.932.932V77.765a.88.88,0,0,1-.932.932h-6.769a.881.881,0,0,1-.932-.932Z" transform="translate(-264.945 -33.301)" fill="#fa4e38"/>
      <path id="Path_299" data-name="Path 299" d="M418.66,161.324V132.757a.88.88,0,0,1,.932-.932h6.459c.559,0,.932.248.932.994l.187,3.229a9.476,9.476,0,0,1,8.571-4.968,9.044,9.044,0,0,1,8.632,5.4,10.018,10.018,0,0,1,9.377-5.4c6.521,0,10.5,4.47,10.5,12.42v17.824a.88.88,0,0,1-.932.932h-6.708a.88.88,0,0,1-.932-.932v-15.96c0-4.16-1.491-6.4-4.844-6.4-3.229,0-5.092,2.236-5.092,6.4v15.96a.88.88,0,0,1-.932.932h-6.644a.9.9,0,0,1-.994-.932v-15.96c0-4.16-1.552-6.4-4.844-6.4-3.229,0-5.092,2.236-5.092,6.4v15.96a.88.88,0,0,1-.932.932h-6.708A.879.879,0,0,1,418.66,161.324Z" transform="translate(-362.417 -116.86)" fill="#fa4e38"/>
      <path id="Path_300" data-name="Path 300" d="M783.76,173.124V132.757a.88.88,0,0,1,.932-.932h6.149a.881.881,0,0,1,.932.932l.123,3.353c2.049-3.168,5.279-5.03,9.937-5.03,8.509,0,14.408,6.956,14.408,15.96,0,9.067-5.9,15.96-14.408,15.96a11.384,11.384,0,0,1-9.44-4.347v14.471a.88.88,0,0,1-.932.932h-6.769A.88.88,0,0,1,783.76,173.124Zm16.272-17.949c4.472,0,7.825-3.23,7.825-8.135,0-4.844-3.353-8.135-7.825-8.135-4.6,0-7.763,3.229-7.763,8.135S795.437,155.176,800.032,155.176Z" transform="translate(-674.61 -116.86)" fill="#fa4e38"/>
      <path id="Path_301" data-name="Path 301" d="M1048.17,83.263V40.722a.88.88,0,0,1,.932-.932h6.769a.88.88,0,0,1,.932.932V83.263a.88.88,0,0,1-.932.932H1049.1A.88.88,0,0,1,1048.17,83.263Z" transform="translate(-900.704 -38.799)" fill="#fa4e38"/>
      <path id="Path_302" data-name="Path 302" d="M1148.01,146.916c0-8.942,6.272-15.836,15.649-15.836,9.254,0,14.6,6.831,14.6,14.532,0,2.981-.683,4.659-3.353,4.659h-18.507c.932,3.85,4.1,5.962,9,5.962a13.454,13.454,0,0,0,7.08-1.864.7.7,0,0,1,1.055.248l2.3,3.168c.31.435.249.869-.31,1.367-2.609,2.608-6.521,3.85-10.806,3.85C1154.718,163,1148.01,156.108,1148.01,146.916Zm22.606-2.671a6.461,6.461,0,0,0-6.893-6.086c-3.788,0-6.707,2.049-7.453,6.086Z" transform="translate(-986.076 -116.86)" fill="#fa4e38"/>
      <g id="Group_96" data-name="Group 96" transform="translate(195.468 0)">
        <path id="Path_303" data-name="Path 303" d="M1823.9,249.37a4.692,4.692,0,0,1,4.781-4.72,4.751,4.751,0,0,1,0,9.5A4.706,4.706,0,0,1,1823.9,249.37Z" transform="translate(-1759.49 -213.972)" fill="#fa4e38"/>
        <path id="Path_304" data-name="Path 304" d="M1383.953,77.412V54.561h-3.6a.88.88,0,0,1-.932-.932V48.847a.88.88,0,0,1,.932-.932h3.6V43.2c0-7.079,3.911-10.245,10.432-10.245a9.37,9.37,0,0,1,4.657.932,1.026,1.026,0,0,1,.559.932v5.65c0,.435-.372.5-.807.435a14.24,14.24,0,0,0-2.484-.31c-3.043,0-3.726,1.552-3.726,3.788v3.539h6.085a.88.88,0,0,1,.932.932v4.782a.88.88,0,0,1-.932.932h-6.085V77.412a.88.88,0,0,1-.932.932h-6.769A.88.88,0,0,1,1383.953,77.412Z" transform="translate(-1379.42 -32.95)" fill="#fa4e38"/>
        <path id="Path_305" data-name="Path 305" d="M1584.508,155.473l-5.5,1.979V136.709a.929.929,0,0,0-.929-.929h-6.687a.929.929,0,0,0-.929.929v8.854c0,3.007-.983,5.03-2.836,5.967a6.5,6.5,0,0,1-2.837.6c-3.655,0-5.635-2.291-5.635-6.564V136.71a.929.929,0,0,0-.929-.929h-6.687a.929.929,0,0,0-.929.929v10.774c0,7.927,4.582,12.51,10.963,12.51h8.942v.472l-15.408,5.462-.049.017a6.538,6.538,0,0,0-1.871,11.623c.078.062.158.126.238.194.957.8,9.286,6.78,13.033,9.461a7.711,7.711,0,0,0,5.039,1.864,7.841,7.841,0,0,0,3.114-.646,7.108,7.108,0,0,0,4.352-6.607v-15.4l8.376-3a.944.944,0,0,0,.575-1.207l-2.189-6.176A.953.953,0,0,0,1584.508,155.473Zm-14,25.5c-3.594-2.575-9.586-6.9-11.852-8.548l11.852-3.537Z" transform="translate(-1525.648 -120.879)" fill="#fa4e38"/>
      </g>
      <path id="Path_306" data-name="Path 306" d="M52.3,136.25H43.345a.652.652,0,0,0-.6.4l-12.154,29.1a.654.654,0,0,0,.6.906h7.521a.654.654,0,0,0,.606-.409l8.421-20.816c2.682,4.173,7.87,5.544,7.87,9.241,0,2.623-2.206,4.292-5.366,4.292a8.729,8.729,0,0,1-3.823-.861.651.651,0,0,0-.884.345l-2.369,5.828a.657.657,0,0,0,.27.809,16.257,16.257,0,0,0,8.474,2.287c7.93,0,12.639-5.127,12.639-12.52,0-10.826-10.286-10.8-11.606-18.059A.65.65,0,0,0,52.3,136.25Z" transform="translate(-30.537 -121.281)" fill="#fa4e38"/>
    </g>
  </g>
</svg>
